<?xml version="1.0" encoding="UTF-8"?>
<svg xmlns="http://www.w3.org/2000/svg" viewBox="0 0 1024 1024" width="1024" height="1024">
  <defs>
    <linearGradient id="dotGrad" x1="0" y1="0" x2="1" y2="1">
      <stop offset="0%" stop-color="#14532d"/>
      <stop offset="100%" stop-color="#16a34a"/>
    </linearGradient>
    <radialGradient id="cap" cx="50%" cy="40%" r="60%">
      <stop offset="0%" stop-color="#86efac"/>
      <stop offset="60%" stop-color="#16a34a"/>
      <stop offset="100%" stop-color="#14532d"/>
    </radialGradient>
    <linearGradient id="stem" x1="0" x2="0" y1="0" y2="1">
      <stop offset="0%" stop-color="#fef3c7"/>
      <stop offset="100%" stop-color="#a8a29e"/>
    </linearGradient>
  </defs>
  <rect width="1024" height="1024" fill="#ffffff"/>
  <g fill="url(#dotGrad)">
    <circle cx="307.20" cy="102.40" r="11.38"/>
    <circle cx="329.96" cy="102.40" r="11.38"/>
    <circle cx="352.71" cy="102.40" r="11.38"/>
    <circle cx="375.47" cy="102.40" r="11.38"/>
    <circle cx="398.22" cy="102.40" r="11.38"/>
    <circle cx="420.98" cy="102.40" r="11.38"/>
    <circle cx="512.00" cy="102.40" r="11.38"/>
    <circle cx="557.51" cy="102.40" r="11.38"/>
    <circle cx="580.27" cy="102.40" r="11.38"/>
    <circle cx="603.02" cy="102.40" r="11.38"/>
    <circle cx="625.78" cy="102.40" r="11.38"/>
    <circle cx="648.53" cy="102.40" r="11.38"/>
    <circle cx="716.80" cy="102.40" r="11.38"/>
    <circle cx="329.96" cy="125.16" r="11.38"/>
    <circle cx="466.49" cy="125.16" r="11.38"/>
    <circle cx="603.02" cy="125.16" r="11.38"/>
    <circle cx="671.29" cy="125.16" r="11.38"/>
    <circle cx="694.04" cy="125.16" r="11.38"/>
    <circle cx="284.44" cy="147.91" r="11.38"/>
    <circle cx="307.20" cy="147.91" r="11.38"/>
    <circle cx="352.71" cy="147.91" r="11.38"/>
    <circle cx="375.47" cy="147.91" r="11.38"/>
    <circle cx="443.73" cy="147.91" r="11.38"/>
    <circle cx="489.24" cy="147.91" r="11.38"/>
    <circle cx="534.76" cy="147.91" r="11.38"/>
    <circle cx="557.51" cy="147.91" r="11.38"/>
    <circle cx="603.02" cy="147.91" r="11.38"/>
    <circle cx="625.78" cy="147.91" r="11.38"/>
    <circle cx="648.53" cy="147.91" r="11.38"/>
    <circle cx="671.29" cy="147.91" r="11.38"/>
    <circle cx="694.04" cy="147.91" r="11.38"/>
    <circle cx="716.80" cy="147.91" r="11.38"/>
    <circle cx="284.44" cy="170.67" r="11.38"/>
    <circle cx="307.20" cy="170.67" r="11.38"/>
    <circle cx="352.71" cy="170.67" r="11.38"/>
    <circle cx="534.76" cy="170.67" r="11.38"/>
    <circle cx="580.27" cy="170.67" r="11.38"/>
    <circle cx="625.78" cy="170.67" r="11.38"/>
    <circle cx="648.53" cy="170.67" r="11.38"/>
    <circle cx="694.04" cy="170.67" r="11.38"/>
    <circle cx="739.56" cy="170.67" r="11.38"/>
    <circle cx="307.20" cy="193.42" r="11.38"/>
    <circle cx="329.96" cy="193.42" r="11.38"/>
    <circle cx="398.22" cy="193.42" r="11.38"/>
    <circle cx="466.49" cy="193.42" r="11.38"/>
    <circle cx="512.00" cy="193.42" r="11.38"/>
    <circle cx="534.76" cy="193.42" r="11.38"/>
    <circle cx="557.51" cy="193.42" r="11.38"/>
    <circle cx="603.02" cy="193.42" r="11.38"/>
    <circle cx="716.80" cy="193.42" r="11.38"/>
    <circle cx="307.20" cy="216.18" r="11.38"/>
    <circle cx="329.96" cy="216.18" r="11.38"/>
    <circle cx="352.71" cy="216.18" r="11.38"/>
    <circle cx="375.47" cy="216.18" r="11.38"/>
    <circle cx="398.22" cy="216.18" r="11.38"/>
    <circle cx="420.98" cy="216.18" r="11.38"/>
    <circle cx="443.73" cy="216.18" r="11.38"/>
    <circle cx="466.49" cy="216.18" r="11.38"/>
    <circle cx="512.00" cy="216.18" r="11.38"/>
    <circle cx="580.27" cy="216.18" r="11.38"/>
    <circle cx="603.02" cy="216.18" r="11.38"/>
    <circle cx="694.04" cy="216.18" r="11.38"/>
    <circle cx="739.56" cy="216.18" r="11.38"/>
    <circle cx="284.44" cy="238.93" r="11.38"/>
    <circle cx="329.96" cy="238.93" r="11.38"/>
    <circle cx="375.47" cy="238.93" r="11.38"/>
    <circle cx="420.98" cy="238.93" r="11.38"/>
    <circle cx="466.49" cy="238.93" r="11.38"/>
    <circle cx="512.00" cy="238.93" r="11.38"/>
    <circle cx="557.51" cy="238.93" r="11.38"/>
    <circle cx="603.02" cy="238.93" r="11.38"/>
    <circle cx="648.53" cy="238.93" r="11.38"/>
    <circle cx="694.04" cy="238.93" r="11.38"/>
    <circle cx="739.56" cy="238.93" r="11.38"/>
    <circle cx="284.44" cy="261.69" r="11.38"/>
    <circle cx="307.20" cy="261.69" r="11.38"/>
    <circle cx="329.96" cy="261.69" r="11.38"/>
    <circle cx="352.71" cy="261.69" r="11.38"/>
    <circle cx="398.22" cy="261.69" r="11.38"/>
    <circle cx="420.98" cy="261.69" r="11.38"/>
    <circle cx="466.49" cy="261.69" r="11.38"/>
    <circle cx="489.24" cy="261.69" r="11.38"/>
    <circle cx="557.51" cy="261.69" r="11.38"/>
    <circle cx="580.27" cy="261.69" r="11.38"/>
    <circle cx="603.02" cy="261.69" r="11.38"/>
    <circle cx="625.78" cy="261.69" r="11.38"/>
    <circle cx="648.53" cy="261.69" r="11.38"/>
    <circle cx="694.04" cy="261.69" r="11.38"/>
    <circle cx="193.42" cy="284.44" r="11.38"/>
    <circle cx="238.93" cy="284.44" r="11.38"/>
    <circle cx="261.69" cy="284.44" r="11.38"/>
    <circle cx="284.44" cy="284.44" r="11.38"/>
    <circle cx="352.71" cy="284.44" r="11.38"/>
    <circle cx="375.47" cy="284.44" r="11.38"/>
    <circle cx="443.73" cy="284.44" r="11.38"/>
    <circle cx="466.49" cy="284.44" r="11.38"/>
    <circle cx="489.24" cy="284.44" r="11.38"/>
    <circle cx="534.76" cy="284.44" r="11.38"/>
    <circle cx="648.53" cy="284.44" r="11.38"/>
    <circle cx="739.56" cy="284.44" r="11.38"/>
    <circle cx="762.31" cy="284.44" r="11.38"/>
    <circle cx="785.07" cy="284.44" r="11.38"/>
    <circle cx="853.33" cy="284.44" r="11.38"/>
    <circle cx="876.09" cy="284.44" r="11.38"/>
    <circle cx="102.40" cy="307.20" r="11.38"/>
    <circle cx="216.18" cy="307.20" r="11.38"/>
    <circle cx="307.20" cy="307.20" r="11.38"/>
    <circle cx="352.71" cy="307.20" r="11.38"/>
    <circle cx="398.22" cy="307.20" r="11.38"/>
    <circle cx="420.98" cy="307.20" r="11.38"/>
    <circle cx="466.49" cy="307.20" r="11.38"/>
    <circle cx="512.00" cy="307.20" r="11.38"/>
    <circle cx="557.51" cy="307.20" r="11.38"/>
    <circle cx="648.53" cy="307.20" r="11.38"/>
    <circle cx="694.04" cy="307.20" r="11.38"/>
    <circle cx="898.84" cy="307.20" r="11.38"/>
    <circle cx="147.91" cy="329.96" r="11.38"/>
    <circle cx="238.93" cy="329.96" r="11.38"/>
    <circle cx="284.44" cy="329.96" r="11.38"/>
    <circle cx="352.71" cy="329.96" r="11.38"/>
    <circle cx="398.22" cy="329.96" r="11.38"/>
    <circle cx="443.73" cy="329.96" r="11.38"/>
    <circle cx="534.76" cy="329.96" r="11.38"/>
    <circle cx="557.51" cy="329.96" r="11.38"/>
    <circle cx="580.27" cy="329.96" r="11.38"/>
    <circle cx="625.78" cy="329.96" r="11.38"/>
    <circle cx="648.53" cy="329.96" r="11.38"/>
    <circle cx="694.04" cy="329.96" r="11.38"/>
    <circle cx="739.56" cy="329.96" r="11.38"/>
    <circle cx="830.58" cy="329.96" r="11.38"/>
    <circle cx="921.60" cy="329.96" r="11.38"/>
    <circle cx="193.42" cy="352.71" r="11.38"/>
    <circle cx="261.69" cy="352.71" r="11.38"/>
    <circle cx="352.71" cy="352.71" r="11.38"/>
    <circle cx="375.47" cy="352.71" r="11.38"/>
    <circle cx="398.22" cy="352.71" r="11.38"/>
    <circle cx="420.98" cy="352.71" r="11.38"/>
    <circle cx="466.49" cy="352.71" r="11.38"/>
    <circle cx="489.24" cy="352.71" r="11.38"/>
    <circle cx="512.00" cy="352.71" r="11.38"/>
    <circle cx="534.76" cy="352.71" r="11.38"/>
    <circle cx="580.27" cy="352.71" r="11.38"/>
    <circle cx="603.02" cy="352.71" r="11.38"/>
    <circle cx="625.78" cy="352.71" r="11.38"/>
    <circle cx="671.29" cy="352.71" r="11.38"/>
    <circle cx="739.56" cy="352.71" r="11.38"/>
    <circle cx="807.82" cy="352.71" r="11.38"/>
    <circle cx="853.33" cy="352.71" r="11.38"/>
    <circle cx="876.09" cy="352.71" r="11.38"/>
    <circle cx="102.40" cy="375.47" r="11.38"/>
    <circle cx="125.16" cy="375.47" r="11.38"/>
    <circle cx="147.91" cy="375.47" r="11.38"/>
    <circle cx="170.67" cy="375.47" r="11.38"/>
    <circle cx="238.93" cy="375.47" r="11.38"/>
    <circle cx="352.71" cy="375.47" r="11.38"/>
    <circle cx="739.56" cy="375.47" r="11.38"/>
    <circle cx="785.07" cy="375.47" r="11.38"/>
    <circle cx="830.58" cy="375.47" r="11.38"/>
    <circle cx="102.40" cy="398.22" r="11.38"/>
    <circle cx="125.16" cy="398.22" r="11.38"/>
    <circle cx="147.91" cy="398.22" r="11.38"/>
    <circle cx="216.18" cy="398.22" r="11.38"/>
    <circle cx="261.69" cy="398.22" r="11.38"/>
    <circle cx="284.44" cy="398.22" r="11.38"/>
    <circle cx="671.29" cy="398.22" r="11.38"/>
    <circle cx="716.80" cy="398.22" r="11.38"/>
    <circle cx="739.56" cy="398.22" r="11.38"/>
    <circle cx="830.58" cy="398.22" r="11.38"/>
    <circle cx="876.09" cy="398.22" r="11.38"/>
    <circle cx="921.60" cy="398.22" r="11.38"/>
    <circle cx="147.91" cy="420.98" r="11.38"/>
    <circle cx="193.42" cy="420.98" r="11.38"/>
    <circle cx="238.93" cy="420.98" r="11.38"/>
    <circle cx="284.44" cy="420.98" r="11.38"/>
    <circle cx="307.20" cy="420.98" r="11.38"/>
    <circle cx="694.04" cy="420.98" r="11.38"/>
    <circle cx="739.56" cy="420.98" r="11.38"/>
    <circle cx="762.31" cy="420.98" r="11.38"/>
    <circle cx="807.82" cy="420.98" r="11.38"/>
    <circle cx="876.09" cy="420.98" r="11.38"/>
    <circle cx="898.84" cy="420.98" r="11.38"/>
    <circle cx="921.60" cy="420.98" r="11.38"/>
    <circle cx="125.16" cy="443.73" r="11.38"/>
    <circle cx="261.69" cy="443.73" r="11.38"/>
    <circle cx="307.20" cy="443.73" r="11.38"/>
    <circle cx="329.96" cy="443.73" r="11.38"/>
    <circle cx="671.29" cy="443.73" r="11.38"/>
    <circle cx="694.04" cy="443.73" r="11.38"/>
    <circle cx="807.82" cy="443.73" r="11.38"/>
    <circle cx="830.58" cy="443.73" r="11.38"/>
    <circle cx="876.09" cy="443.73" r="11.38"/>
    <circle cx="898.84" cy="443.73" r="11.38"/>
    <circle cx="102.40" cy="466.49" r="11.38"/>
    <circle cx="125.16" cy="466.49" r="11.38"/>
    <circle cx="238.93" cy="466.49" r="11.38"/>
    <circle cx="307.20" cy="466.49" r="11.38"/>
    <circle cx="329.96" cy="466.49" r="11.38"/>
    <circle cx="352.71" cy="466.49" r="11.38"/>
    <circle cx="716.80" cy="466.49" r="11.38"/>
    <circle cx="739.56" cy="466.49" r="11.38"/>
    <circle cx="830.58" cy="466.49" r="11.38"/>
    <circle cx="898.84" cy="466.49" r="11.38"/>
    <circle cx="193.42" cy="489.24" r="11.38"/>
    <circle cx="216.18" cy="489.24" r="11.38"/>
    <circle cx="261.69" cy="489.24" r="11.38"/>
    <circle cx="284.44" cy="489.24" r="11.38"/>
    <circle cx="352.71" cy="489.24" r="11.38"/>
    <circle cx="716.80" cy="489.24" r="11.38"/>
    <circle cx="853.33" cy="489.24" r="11.38"/>
    <circle cx="125.16" cy="512.00" r="11.38"/>
    <circle cx="193.42" cy="512.00" r="11.38"/>
    <circle cx="216.18" cy="512.00" r="11.38"/>
    <circle cx="238.93" cy="512.00" r="11.38"/>
    <circle cx="307.20" cy="512.00" r="11.38"/>
    <circle cx="329.96" cy="512.00" r="11.38"/>
    <circle cx="739.56" cy="512.00" r="11.38"/>
    <circle cx="762.31" cy="512.00" r="11.38"/>
    <circle cx="785.07" cy="512.00" r="11.38"/>
    <circle cx="807.82" cy="512.00" r="11.38"/>
    <circle cx="876.09" cy="512.00" r="11.38"/>
    <circle cx="102.40" cy="534.76" r="11.38"/>
    <circle cx="125.16" cy="534.76" r="11.38"/>
    <circle cx="170.67" cy="534.76" r="11.38"/>
    <circle cx="261.69" cy="534.76" r="11.38"/>
    <circle cx="284.44" cy="534.76" r="11.38"/>
    <circle cx="307.20" cy="534.76" r="11.38"/>
    <circle cx="329.96" cy="534.76" r="11.38"/>
    <circle cx="671.29" cy="534.76" r="11.38"/>
    <circle cx="694.04" cy="534.76" r="11.38"/>
    <circle cx="716.80" cy="534.76" r="11.38"/>
    <circle cx="762.31" cy="534.76" r="11.38"/>
    <circle cx="785.07" cy="534.76" r="11.38"/>
    <circle cx="853.33" cy="534.76" r="11.38"/>
    <circle cx="102.40" cy="557.51" r="11.38"/>
    <circle cx="193.42" cy="557.51" r="11.38"/>
    <circle cx="238.93" cy="557.51" r="11.38"/>
    <circle cx="261.69" cy="557.51" r="11.38"/>
    <circle cx="307.20" cy="557.51" r="11.38"/>
    <circle cx="694.04" cy="557.51" r="11.38"/>
    <circle cx="716.80" cy="557.51" r="11.38"/>
    <circle cx="739.56" cy="557.51" r="11.38"/>
    <circle cx="807.82" cy="557.51" r="11.38"/>
    <circle cx="853.33" cy="557.51" r="11.38"/>
    <circle cx="898.84" cy="557.51" r="11.38"/>
    <circle cx="921.60" cy="557.51" r="11.38"/>
    <circle cx="102.40" cy="580.27" r="11.38"/>
    <circle cx="147.91" cy="580.27" r="11.38"/>
    <circle cx="170.67" cy="580.27" r="11.38"/>
    <circle cx="193.42" cy="580.27" r="11.38"/>
    <circle cx="216.18" cy="580.27" r="11.38"/>
    <circle cx="284.44" cy="580.27" r="11.38"/>
    <circle cx="671.29" cy="580.27" r="11.38"/>
    <circle cx="694.04" cy="580.27" r="11.38"/>
    <circle cx="716.80" cy="580.27" r="11.38"/>
    <circle cx="762.31" cy="580.27" r="11.38"/>
    <circle cx="853.33" cy="580.27" r="11.38"/>
    <circle cx="876.09" cy="580.27" r="11.38"/>
    <circle cx="898.84" cy="580.27" r="11.38"/>
    <circle cx="125.16" cy="603.02" r="11.38"/>
    <circle cx="147.91" cy="603.02" r="11.38"/>
    <circle cx="193.42" cy="603.02" r="11.38"/>
    <circle cx="216.18" cy="603.02" r="11.38"/>
    <circle cx="238.93" cy="603.02" r="11.38"/>
    <circle cx="329.96" cy="603.02" r="11.38"/>
    <circle cx="352.71" cy="603.02" r="11.38"/>
    <circle cx="739.56" cy="603.02" r="11.38"/>
    <circle cx="785.07" cy="603.02" r="11.38"/>
    <circle cx="830.58" cy="603.02" r="11.38"/>
    <circle cx="853.33" cy="603.02" r="11.38"/>
    <circle cx="876.09" cy="603.02" r="11.38"/>
    <circle cx="102.40" cy="625.78" r="11.38"/>
    <circle cx="147.91" cy="625.78" r="11.38"/>
    <circle cx="170.67" cy="625.78" r="11.38"/>
    <circle cx="193.42" cy="625.78" r="11.38"/>
    <circle cx="261.69" cy="625.78" r="11.38"/>
    <circle cx="284.44" cy="625.78" r="11.38"/>
    <circle cx="329.96" cy="625.78" r="11.38"/>
    <circle cx="671.29" cy="625.78" r="11.38"/>
    <circle cx="694.04" cy="625.78" r="11.38"/>
    <circle cx="716.80" cy="625.78" r="11.38"/>
    <circle cx="762.31" cy="625.78" r="11.38"/>
    <circle cx="876.09" cy="625.78" r="11.38"/>
    <circle cx="125.16" cy="648.53" r="11.38"/>
    <circle cx="147.91" cy="648.53" r="11.38"/>
    <circle cx="193.42" cy="648.53" r="11.38"/>
    <circle cx="216.18" cy="648.53" r="11.38"/>
    <circle cx="238.93" cy="648.53" r="11.38"/>
    <circle cx="261.69" cy="648.53" r="11.38"/>
    <circle cx="284.44" cy="648.53" r="11.38"/>
    <circle cx="307.20" cy="648.53" r="11.38"/>
    <circle cx="329.96" cy="648.53" r="11.38"/>
    <circle cx="671.29" cy="648.53" r="11.38"/>
    <circle cx="762.31" cy="648.53" r="11.38"/>
    <circle cx="807.82" cy="648.53" r="11.38"/>
    <circle cx="830.58" cy="648.53" r="11.38"/>
    <circle cx="853.33" cy="648.53" r="11.38"/>
    <circle cx="876.09" cy="648.53" r="11.38"/>
    <circle cx="125.16" cy="671.29" r="11.38"/>
    <circle cx="147.91" cy="671.29" r="11.38"/>
    <circle cx="170.67" cy="671.29" r="11.38"/>
    <circle cx="216.18" cy="671.29" r="11.38"/>
    <circle cx="284.44" cy="671.29" r="11.38"/>
    <circle cx="307.20" cy="671.29" r="11.38"/>
    <circle cx="329.96" cy="671.29" r="11.38"/>
    <circle cx="352.71" cy="671.29" r="11.38"/>
    <circle cx="375.47" cy="671.29" r="11.38"/>
    <circle cx="420.98" cy="671.29" r="11.38"/>
    <circle cx="466.49" cy="671.29" r="11.38"/>
    <circle cx="512.00" cy="671.29" r="11.38"/>
    <circle cx="580.27" cy="671.29" r="11.38"/>
    <circle cx="603.02" cy="671.29" r="11.38"/>
    <circle cx="671.29" cy="671.29" r="11.38"/>
    <circle cx="694.04" cy="671.29" r="11.38"/>
    <circle cx="739.56" cy="671.29" r="11.38"/>
    <circle cx="876.09" cy="671.29" r="11.38"/>
    <circle cx="898.84" cy="671.29" r="11.38"/>
    <circle cx="921.60" cy="671.29" r="11.38"/>
    <circle cx="102.40" cy="694.04" r="11.38"/>
    <circle cx="170.67" cy="694.04" r="11.38"/>
    <circle cx="193.42" cy="694.04" r="11.38"/>
    <circle cx="238.93" cy="694.04" r="11.38"/>
    <circle cx="307.20" cy="694.04" r="11.38"/>
    <circle cx="352.71" cy="694.04" r="11.38"/>
    <circle cx="375.47" cy="694.04" r="11.38"/>
    <circle cx="398.22" cy="694.04" r="11.38"/>
    <circle cx="420.98" cy="694.04" r="11.38"/>
    <circle cx="512.00" cy="694.04" r="11.38"/>
    <circle cx="557.51" cy="694.04" r="11.38"/>
    <circle cx="580.27" cy="694.04" r="11.38"/>
    <circle cx="648.53" cy="694.04" r="11.38"/>
    <circle cx="671.29" cy="694.04" r="11.38"/>
    <circle cx="694.04" cy="694.04" r="11.38"/>
    <circle cx="716.80" cy="694.04" r="11.38"/>
    <circle cx="762.31" cy="694.04" r="11.38"/>
    <circle cx="807.82" cy="694.04" r="11.38"/>
    <circle cx="876.09" cy="694.04" r="11.38"/>
    <circle cx="921.60" cy="694.04" r="11.38"/>
    <circle cx="147.91" cy="716.80" r="11.38"/>
    <circle cx="170.67" cy="716.80" r="11.38"/>
    <circle cx="193.42" cy="716.80" r="11.38"/>
    <circle cx="261.69" cy="716.80" r="11.38"/>
    <circle cx="284.44" cy="716.80" r="11.38"/>
    <circle cx="307.20" cy="716.80" r="11.38"/>
    <circle cx="329.96" cy="716.80" r="11.38"/>
    <circle cx="352.71" cy="716.80" r="11.38"/>
    <circle cx="398.22" cy="716.80" r="11.38"/>
    <circle cx="443.73" cy="716.80" r="11.38"/>
    <circle cx="466.49" cy="716.80" r="11.38"/>
    <circle cx="489.24" cy="716.80" r="11.38"/>
    <circle cx="512.00" cy="716.80" r="11.38"/>
    <circle cx="625.78" cy="716.80" r="11.38"/>
    <circle cx="716.80" cy="716.80" r="11.38"/>
    <circle cx="853.33" cy="716.80" r="11.38"/>
    <circle cx="876.09" cy="716.80" r="11.38"/>
    <circle cx="102.40" cy="739.56" r="11.38"/>
    <circle cx="147.91" cy="739.56" r="11.38"/>
    <circle cx="238.93" cy="739.56" r="11.38"/>
    <circle cx="261.69" cy="739.56" r="11.38"/>
    <circle cx="284.44" cy="739.56" r="11.38"/>
    <circle cx="307.20" cy="739.56" r="11.38"/>
    <circle cx="398.22" cy="739.56" r="11.38"/>
    <circle cx="443.73" cy="739.56" r="11.38"/>
    <circle cx="466.49" cy="739.56" r="11.38"/>
    <circle cx="512.00" cy="739.56" r="11.38"/>
    <circle cx="557.51" cy="739.56" r="11.38"/>
    <circle cx="625.78" cy="739.56" r="11.38"/>
    <circle cx="648.53" cy="739.56" r="11.38"/>
    <circle cx="739.56" cy="739.56" r="11.38"/>
    <circle cx="762.31" cy="739.56" r="11.38"/>
    <circle cx="785.07" cy="739.56" r="11.38"/>
    <circle cx="807.82" cy="739.56" r="11.38"/>
    <circle cx="830.58" cy="739.56" r="11.38"/>
    <circle cx="284.44" cy="762.31" r="11.38"/>
    <circle cx="307.20" cy="762.31" r="11.38"/>
    <circle cx="329.96" cy="762.31" r="11.38"/>
    <circle cx="375.47" cy="762.31" r="11.38"/>
    <circle cx="420.98" cy="762.31" r="11.38"/>
    <circle cx="557.51" cy="762.31" r="11.38"/>
    <circle cx="580.27" cy="762.31" r="11.38"/>
    <circle cx="648.53" cy="762.31" r="11.38"/>
    <circle cx="671.29" cy="762.31" r="11.38"/>
    <circle cx="716.80" cy="762.31" r="11.38"/>
    <circle cx="739.56" cy="762.31" r="11.38"/>
    <circle cx="830.58" cy="762.31" r="11.38"/>
    <circle cx="898.84" cy="762.31" r="11.38"/>
    <circle cx="921.60" cy="762.31" r="11.38"/>
    <circle cx="284.44" cy="785.07" r="11.38"/>
    <circle cx="307.20" cy="785.07" r="11.38"/>
    <circle cx="375.47" cy="785.07" r="11.38"/>
    <circle cx="398.22" cy="785.07" r="11.38"/>
    <circle cx="420.98" cy="785.07" r="11.38"/>
    <circle cx="489.24" cy="785.07" r="11.38"/>
    <circle cx="603.02" cy="785.07" r="11.38"/>
    <circle cx="625.78" cy="785.07" r="11.38"/>
    <circle cx="739.56" cy="785.07" r="11.38"/>
    <circle cx="785.07" cy="785.07" r="11.38"/>
    <circle cx="830.58" cy="785.07" r="11.38"/>
    <circle cx="853.33" cy="785.07" r="11.38"/>
    <circle cx="876.09" cy="785.07" r="11.38"/>
    <circle cx="921.60" cy="785.07" r="11.38"/>
    <circle cx="329.96" cy="807.82" r="11.38"/>
    <circle cx="352.71" cy="807.82" r="11.38"/>
    <circle cx="398.22" cy="807.82" r="11.38"/>
    <circle cx="443.73" cy="807.82" r="11.38"/>
    <circle cx="489.24" cy="807.82" r="11.38"/>
    <circle cx="512.00" cy="807.82" r="11.38"/>
    <circle cx="580.27" cy="807.82" r="11.38"/>
    <circle cx="671.29" cy="807.82" r="11.38"/>
    <circle cx="694.04" cy="807.82" r="11.38"/>
    <circle cx="716.80" cy="807.82" r="11.38"/>
    <circle cx="739.56" cy="807.82" r="11.38"/>
    <circle cx="830.58" cy="807.82" r="11.38"/>
    <circle cx="284.44" cy="830.58" r="11.38"/>
    <circle cx="329.96" cy="830.58" r="11.38"/>
    <circle cx="375.47" cy="830.58" r="11.38"/>
    <circle cx="398.22" cy="830.58" r="11.38"/>
    <circle cx="443.73" cy="830.58" r="11.38"/>
    <circle cx="557.51" cy="830.58" r="11.38"/>
    <circle cx="603.02" cy="830.58" r="11.38"/>
    <circle cx="694.04" cy="830.58" r="11.38"/>
    <circle cx="716.80" cy="830.58" r="11.38"/>
    <circle cx="739.56" cy="830.58" r="11.38"/>
    <circle cx="762.31" cy="830.58" r="11.38"/>
    <circle cx="785.07" cy="830.58" r="11.38"/>
    <circle cx="807.82" cy="830.58" r="11.38"/>
    <circle cx="830.58" cy="830.58" r="11.38"/>
    <circle cx="853.33" cy="830.58" r="11.38"/>
    <circle cx="876.09" cy="830.58" r="11.38"/>
    <circle cx="921.60" cy="830.58" r="11.38"/>
    <circle cx="307.20" cy="853.33" r="11.38"/>
    <circle cx="352.71" cy="853.33" r="11.38"/>
    <circle cx="375.47" cy="853.33" r="11.38"/>
    <circle cx="466.49" cy="853.33" r="11.38"/>
    <circle cx="489.24" cy="853.33" r="11.38"/>
    <circle cx="534.76" cy="853.33" r="11.38"/>
    <circle cx="603.02" cy="853.33" r="11.38"/>
    <circle cx="625.78" cy="853.33" r="11.38"/>
    <circle cx="671.29" cy="853.33" r="11.38"/>
    <circle cx="716.80" cy="853.33" r="11.38"/>
    <circle cx="762.31" cy="853.33" r="11.38"/>
    <circle cx="785.07" cy="853.33" r="11.38"/>
    <circle cx="807.82" cy="853.33" r="11.38"/>
    <circle cx="830.58" cy="853.33" r="11.38"/>
    <circle cx="898.84" cy="853.33" r="11.38"/>
    <circle cx="921.60" cy="853.33" r="11.38"/>
    <circle cx="329.96" cy="876.09" r="11.38"/>
    <circle cx="352.71" cy="876.09" r="11.38"/>
    <circle cx="375.47" cy="876.09" r="11.38"/>
    <circle cx="398.22" cy="876.09" r="11.38"/>
    <circle cx="420.98" cy="876.09" r="11.38"/>
    <circle cx="466.49" cy="876.09" r="11.38"/>
    <circle cx="512.00" cy="876.09" r="11.38"/>
    <circle cx="625.78" cy="876.09" r="11.38"/>
    <circle cx="648.53" cy="876.09" r="11.38"/>
    <circle cx="694.04" cy="876.09" r="11.38"/>
    <circle cx="762.31" cy="876.09" r="11.38"/>
    <circle cx="876.09" cy="876.09" r="11.38"/>
    <circle cx="898.84" cy="876.09" r="11.38"/>
    <circle cx="921.60" cy="876.09" r="11.38"/>
    <circle cx="307.20" cy="898.84" r="11.38"/>
    <circle cx="398.22" cy="898.84" r="11.38"/>
    <circle cx="420.98" cy="898.84" r="11.38"/>
    <circle cx="443.73" cy="898.84" r="11.38"/>
    <circle cx="466.49" cy="898.84" r="11.38"/>
    <circle cx="512.00" cy="898.84" r="11.38"/>
    <circle cx="580.27" cy="898.84" r="11.38"/>
    <circle cx="625.78" cy="898.84" r="11.38"/>
    <circle cx="671.29" cy="898.84" r="11.38"/>
    <circle cx="694.04" cy="898.84" r="11.38"/>
    <circle cx="716.80" cy="898.84" r="11.38"/>
    <circle cx="785.07" cy="898.84" r="11.38"/>
    <circle cx="876.09" cy="898.84" r="11.38"/>
    <circle cx="921.60" cy="898.84" r="11.38"/>
    <circle cx="352.71" cy="921.60" r="11.38"/>
    <circle cx="375.47" cy="921.60" r="11.38"/>
    <circle cx="398.22" cy="921.60" r="11.38"/>
    <circle cx="489.24" cy="921.60" r="11.38"/>
    <circle cx="512.00" cy="921.60" r="11.38"/>
    <circle cx="534.76" cy="921.60" r="11.38"/>
    <circle cx="648.53" cy="921.60" r="11.38"/>
    <circle cx="671.29" cy="921.60" r="11.38"/>
    <circle cx="739.56" cy="921.60" r="11.38"/>
    <circle cx="762.31" cy="921.60" r="11.38"/>
    <circle cx="785.07" cy="921.60" r="11.38"/>
    <circle cx="830.58" cy="921.60" r="11.38"/>
    <circle cx="921.60" cy="921.60" r="11.38"/>
  </g>
  <rect x="102.40" y="102.40" width="136.53" height="136.53" rx="20.48" ry="20.48" fill="none" stroke="#14532d" stroke-width="22.76"/><rect x="136.53" y="136.53" width="68.27" height="68.27" rx="9.10" ry="9.10" fill="#65a30d"/>
<rect x="785.07" y="102.40" width="136.53" height="136.53" rx="20.48" ry="20.48" fill="none" stroke="#14532d" stroke-width="22.76"/><rect x="819.20" y="136.53" width="68.27" height="68.27" rx="9.10" ry="9.10" fill="#65a30d"/>
<rect x="102.40" y="785.07" width="136.53" height="136.53" rx="20.48" ry="20.48" fill="none" stroke="#14532d" stroke-width="22.76"/><rect x="136.53" y="819.20" width="68.27" height="68.27" rx="9.10" ry="9.10" fill="#65a30d"/>
  
  <g transform="translate(399.36,399.36) scale(3.5200)">
    <rect x="0" y="0" width="64" height="64" rx="10" ry="10" fill="#ffffff"/>
    <ellipse cx="32" cy="55" rx="14" ry="3" fill="#000" opacity="0.18"/>
    <path d="M22 30 Q22 50 26 54 L38 54 Q42 50 42 30 Z" fill="url(#stem)" stroke="#57534e" stroke-width="0.5"/>
    <path d="M8 30 Q8 10 32 8 Q56 10 56 30 Q56 34 50 34 L14 34 Q8 34 8 30 Z" fill="url(#cap)"/>
    <circle cx="20" cy="22" r="2.6" fill="#f0fdf4" opacity="0.95"/>
    <circle cx="32" cy="16" r="3.4" fill="#f0fdf4" opacity="0.95"/>
    <circle cx="44" cy="22" r="2.2" fill="#f0fdf4" opacity="0.95"/>
    <circle cx="14" cy="28" r="1.6" fill="#f0fdf4" opacity="0.85"/>
    <circle cx="50" cy="28" r="1.8" fill="#f0fdf4" opacity="0.85"/>
  </g>
</svg>
