<svg xmlns="http://www.w3.org/2000/svg" viewBox="0 0 64 64" fill="none">
  <defs>
    <radialGradient id="cap" cx="50%" cy="40%" r="60%">
      <stop offset="0%" stop-color="#86efac"/>
      <stop offset="60%" stop-color="#16a34a"/>
      <stop offset="100%" stop-color="#14532d"/>
    </radialGradient>
    <linearGradient id="stem" x1="0" x2="0" y1="0" y2="1">
      <stop offset="0%" stop-color="#fef3c7"/>
      <stop offset="100%" stop-color="#a8a29e"/>
    </linearGradient>
  </defs>
  <ellipse cx="32" cy="55" rx="14" ry="3" fill="#000" opacity="0.18"/>
  <path d="M22 30 Q22 50 26 54 L38 54 Q42 50 42 30 Z" fill="url(#stem)" stroke="#57534e" stroke-width="0.5"/>
  <path d="M8 30 Q8 10 32 8 Q56 10 56 30 Q56 34 50 34 L14 34 Q8 34 8 30 Z" fill="url(#cap)"/>
  <circle cx="20" cy="22" r="2.6" fill="#f0fdf4" opacity="0.95"/>
  <circle cx="32" cy="16" r="3.4" fill="#f0fdf4" opacity="0.95"/>
  <circle cx="44" cy="22" r="2.2" fill="#f0fdf4" opacity="0.95"/>
  <circle cx="14" cy="28" r="1.6" fill="#f0fdf4" opacity="0.85"/>
  <circle cx="50" cy="28" r="1.8" fill="#f0fdf4" opacity="0.85"/>
  <path d="M8 30 Q8 10 32 8 Q56 10 56 30" fill="none" stroke="#052e16" stroke-width="0.6" opacity="0.4"/>
</svg>
